<svg width="66" height="67" xmlns="http://www.w3.org/2000/svg" xmlns:xlink="http://www.w3.org/1999/xlink" xml:space="preserve" overflow="hidden"><g transform="translate(-911 -223)"><path d="M27.1562 30.6625C27.1562 34.0798 24.386 36.85 20.9688 36.85 17.5515 36.85 14.7812 34.0798 14.7812 30.6625 14.7812 27.2452 17.5515 24.475 20.9688 24.475 24.386 24.475 27.1562 27.2452 27.1562 30.6625Z" stroke="#FFFFFF" stroke-width="0.6875" fill="#FF0000" transform="matrix(1 0 0 1.01515 911 223)"/><path d="M49.8438 60.5 49.8438 54.3125C49.8691 53.3329 49.4051 52.405 48.6062 51.8375 46.8253 50.4436 44.76 49.4579 42.5563 48.95 40.9039 48.4533 39.1934 48.1759 37.4688 48.125 35.74 48.1304 34.0231 48.4087 32.3812 48.95 30.2087 49.5447 28.1599 50.5226 26.3312 51.8375 25.5556 52.4246 25.098 53.3398 25.0938 54.3125L25.0938 60.5Z" stroke="#FFFFFF" stroke-width="0.6875" fill="#FF0000" transform="matrix(1 0 0 1.01515 911 223)"/><path d="M43.6562 40.2875C43.6562 43.7048 40.886 46.475 37.4688 46.475 34.0515 46.475 31.2812 43.7048 31.2812 40.2875 31.2812 36.8702 34.0515 34.1 37.4688 34.1 40.886 34.1 43.6562 36.8702 43.6562 40.2875Z" stroke="#FFFFFF" stroke-width="0.6875" fill="#FF0000" transform="matrix(1 0 0 1.01515 911 223)"/><path d="M24.6813 49.6375 24.6813 49.6375C26.6117 48.2598 28.7458 47.1927 31.0062 46.475 29.4428 44.8458 28.5579 42.6828 28.5312 40.425L28.5312 40.15C27.728 39.8135 26.9007 39.5377 26.0563 39.325 24.4039 38.8283 22.6934 38.5509 20.9688 38.5 19.24 38.5053 17.5231 38.7837 15.8813 39.325 13.7308 39.9778 11.6912 40.9512 9.83125 42.2125 9.03237 42.78 8.56838 43.7079 8.59375 44.6875L8.59375 50.875 23.4437 50.875C23.7846 50.3966 24.2029 49.9784 24.6813 49.6375Z" stroke="#FFFFFF" stroke-width="0.6875" fill="#FF0000" transform="matrix(1 0 0 1.01515 911 223)"/><path d="M55.9281 5.5 29.9613 5.5C29.1666 5.50756 28.5274 6.15592 28.5312 6.95062L28.5312 24.6538C28.5161 25.451 29.1499 26.1096 29.9472 26.1248 29.9518 26.1249 29.9566 26.1249 29.9613 26.125L34.0863 26.125 34.0863 31.9275 39.7856 26.125 55.9281 26.125C56.7239 26.1174 57.365 25.4702 57.365 24.6744L57.365 6.95062C57.3651 6.15481 56.7239 5.50754 55.9281 5.5ZM42.8244 23.5469C41.9814 23.5468 41.2982 22.8634 41.2983 22.0205 41.2983 21.1775 41.9817 20.4943 42.8246 20.4944 43.6595 20.4944 44.3393 21.1652 44.3506 22 44.3658 22.839 43.698 23.5315 42.859 23.5467 42.8475 23.5469 42.8359 23.5469 42.8244 23.5469ZM43.8075 17.2563 43.8075 19.4219 41.8481 19.4219 41.8481 15.3725 42.8244 15.3725C44.5294 15.3725 45.6294 14.3756 45.6294 12.8425 45.6563 11.324 44.447 10.0711 42.9285 10.0442 42.8938 10.0436 42.8591 10.0437 42.8244 10.0444 41.4104 9.91299 40.1576 10.9527 40.0263 12.3667 40.0115 12.5249 40.0115 12.6842 40.0263 12.8425L40.0263 13.0144 38.0669 13.0144 38.0669 12.8425C37.9184 10.3599 39.8105 8.22704 42.2931 8.07854 42.47 8.06795 42.6474 8.06781 42.8244 8.07812 45.4251 8.0476 47.5582 10.1311 47.5888 12.7319 47.5892 12.7687 47.5892 12.8056 47.5888 12.8425 47.6555 15.0688 46.0177 16.9806 43.8075 17.2563Z" stroke="#FFFFFF" stroke-width="0.6875" fill="#FF0000" transform="matrix(1 0 0 1.01515 911 223)"/></g></svg>