<svg width="63" height="62" xmlns="http://www.w3.org/2000/svg" xmlns:xlink="http://www.w3.org/1999/xlink" xml:space="preserve" overflow="hidden"><defs><clipPath id="clip0"><rect x="873" y="404" width="63" height="62"/></clipPath></defs><g clip-path="url(#clip0)" transform="translate(-873 -404)"><path d="M56.6525 19.1942C54.715 19.1942 53.165 22.714 53.165 25.6525 53.165 27.4415 53.7463 28.6233 54.631 29.2562 55.0999 29.5508 55.4392 30.0125 55.5804 30.5479L55.1735 44.3623C55.2279 45.188 55.9412 45.8133 56.7669 45.7591 57.517 45.7098 58.1144 45.1124 58.1637 44.3623L57.7569 30.5479C57.8997 30.0115 58.2414 29.5496 58.7127 29.2562 59.591 28.6104 60.1723 27.4415 60.1723 25.6525 60.1335 22.714 58.5835 19.1942 56.6525 19.1942Z" stroke="#E60A11" stroke-width="0.645833" fill="#E60A11" transform="matrix(1.01613 0 0 1 873 404)"/><path d="M9.19667 19.1942 8.55083 19.1942 8.55083 26.2983C8.55083 26.5052 8.38311 26.6729 8.17625 26.6729 7.96939 26.6729 7.80167 26.5052 7.80167 26.2983L7.80167 19.1942 6.82646 19.1942 6.82646 26.2983C6.82646 26.5052 6.65874 26.6729 6.45187 26.6729 6.245 26.6729 6.07729 26.5052 6.07729 26.2983L6.07729 19.1942 5.08271 19.1942 5.08271 26.2983C5.08271 26.5052 4.915 26.6729 4.70812 26.6729 4.50125 26.6729 4.33354 26.5052 4.33354 26.2983L4.33354 19.1942 3.68771 19.1942C3.24665 21.3204 2.99594 23.4817 2.93854 25.6525 2.93854 27.4479 3.51979 28.6298 4.39812 29.2627 4.86805 29.5575 5.20939 30.0188 5.35396 30.5544L4.97292 44.3558C4.97292 45.1833 5.64374 45.8542 6.47125 45.8542 7.29876 45.8542 7.96958 45.1833 7.96958 44.3558L7.56271 30.5285C7.7057 29.994 8.04463 29.5329 8.51208 29.2369 9.39687 28.591 9.97812 27.4221 9.97812 25.6267 9.87763 23.4661 9.61646 21.316 9.19667 19.1942Z" stroke="#E60A11" stroke-width="0.645833" fill="#E60A11" transform="matrix(1.01613 0 0 1 873 404)"/><path d="M51.4019 31.5877 51.4019 16.6367C51.4126 16.0197 50.9211 15.5108 50.3041 15.5001 50.2955 15.5 50.2868 15.4999 50.2781 15.5 50.2781 15.5 48.3406 15.571 48.0242 21.0154L47.4688 30.6835C47.4688 31.1744 48.6183 31.5683 49.051 31.7298L48.4827 44.175C48.5402 45.1006 49.3371 45.8043 50.2628 45.7468 51.1082 45.6943 51.7821 45.0204 51.8346 44.175Z" stroke="#E60A11" stroke-width="0.645833" fill="#E60A11" transform="matrix(1.01613 0 0 1 873 404)"/><path d="M28.4167 12.9167C18.7862 12.9167 10.9792 20.7237 10.9792 30.3542 10.9792 39.9846 18.7862 47.7917 28.4167 47.7917 38.0471 47.7917 45.8542 39.9846 45.8542 30.3542 45.8542 20.7237 38.0471 12.9167 28.4167 12.9167ZM28.4167 43.9167C20.9263 43.9167 14.8542 37.8445 14.8542 30.3542 14.8542 22.8638 20.9263 16.7917 28.4167 16.7917 35.907 16.7917 41.9792 22.8638 41.9792 30.3542 41.9792 37.8445 35.907 43.9167 28.4167 43.9167Z" stroke="#E60A11" stroke-width="0.645833" fill="#E60A11" transform="matrix(1.01613 0 0 1 873 404)"/><path d="M40.0417 30.3542C40.0417 36.7745 34.837 41.9792 28.4167 41.9792 21.9964 41.9792 16.7917 36.7745 16.7917 30.3542 16.7917 23.9339 21.9964 18.7292 28.4167 18.7292 34.837 18.7292 40.0417 23.9339 40.0417 30.3542Z" stroke="#E60A11" stroke-width="0.645833" fill="#E60A11" transform="matrix(1.01613 0 0 1 873 404)"/></g></svg>