<svg width="43" height="43" xmlns="http://www.w3.org/2000/svg" xmlns:xlink="http://www.w3.org/1999/xlink" xml:space="preserve" overflow="hidden"><defs><clipPath id="clip0"><rect x="664" y="419" width="43" height="43"/></clipPath></defs><g clip-path="url(#clip0)" transform="translate(-664 -419)"><path d="M698.045 437.816 695.133 430.963C694.734 429.953 693.755 429.294 692.67 429.305L689.086 429.305 689.086 428.406C689.083 427.418 688.283 426.618 687.295 426.615L683.711 426.615C682.723 426.618 681.923 427.418 681.92 428.406L681.92 429.302 678.336 429.302C677.251 429.291 676.272 429.95 675.873 430.959L672.961 437.812 672.961 437.812 672.961 437.816C671.479 437.82 670.279 439.021 670.274 440.503L670.274 447.67C670.277 448.658 671.077 449.458 672.066 449.461L672.961 449.461 672.961 452.597C672.964 453.585 673.765 454.386 674.753 454.389L675.649 454.389C676.637 454.386 677.438 453.585 677.441 452.597L677.441 449.461 693.566 449.461 693.566 452.597C693.569 453.585 694.369 454.386 695.357 454.389L696.253 454.389C697.241 454.386 698.042 453.585 698.045 452.597L698.045 449.461 698.941 449.461C699.929 449.458 700.729 448.658 700.732 447.67L700.732 440.503C700.728 439.021 699.527 437.82 698.045 437.816ZM683.711 427.51 687.294 427.51C687.789 427.51 688.19 427.911 688.19 428.406L688.19 429.302 682.815 429.302 682.815 428.406C682.815 427.911 683.216 427.51 683.711 427.51ZM692.669 430.198C693.385 430.188 694.033 430.62 694.298 431.286L694.303 431.298 694.308 431.31 697.07 437.812 673.935 437.812 676.696 431.311 676.702 431.299 676.706 431.287C676.971 430.621 677.619 430.188 678.336 430.198ZM676.544 452.6C676.544 453.095 676.143 453.496 675.648 453.496L674.75 453.496C674.255 453.496 673.854 453.095 673.854 452.6L673.854 449.465 676.542 449.465ZM697.148 452.6C697.148 453.095 696.747 453.496 696.252 453.496L695.356 453.496C694.862 453.496 694.461 453.095 694.461 452.6L694.461 449.465 697.148 449.465ZM672.065 448.569C671.57 448.569 671.169 448.168 671.169 447.673L671.169 440.506C671.17 439.517 671.972 438.716 672.961 438.715L698.044 438.715C699.033 438.716 699.834 439.517 699.836 440.506L699.836 447.673C699.836 448.168 699.435 448.569 698.94 448.569Z" stroke="#E60A11" stroke-width="0.447917" fill="#E60A11"/><path d="M676.542 440.121 673.854 440.121C673.112 440.121 672.51 440.722 672.51 441.464L672.51 442.36C672.51 443.102 673.112 443.704 673.854 443.704L676.542 443.704C677.284 443.704 677.885 443.102 677.885 442.36L677.885 441.464C677.885 440.722 677.284 440.121 676.542 440.121ZM676.99 442.36C676.99 442.608 676.789 442.808 676.542 442.808L673.854 442.808C673.607 442.808 673.406 442.608 673.406 442.36L673.406 441.464C673.406 441.217 673.607 441.016 673.854 441.016L676.542 441.016C676.789 441.016 676.99 441.217 676.99 441.464Z" stroke="#E60A11" stroke-width="0.447917" fill="#E60A11"/><path d="M697.146 440.121 694.458 440.121C693.716 440.121 693.115 440.722 693.115 441.464L693.115 442.36C693.115 443.102 693.716 443.704 694.458 443.704L697.146 443.704C697.888 443.704 698.49 443.102 698.49 442.36L698.49 441.464C698.49 440.722 697.888 440.121 697.146 440.121ZM697.594 442.36C697.594 442.608 697.393 442.808 697.146 442.808L694.458 442.808C694.211 442.808 694.01 442.608 694.01 442.36L694.01 441.464C694.01 441.217 694.211 441.016 694.458 441.016L697.146 441.016C697.393 441.016 697.594 441.217 697.594 441.464Z" stroke="#E60A11" stroke-width="0.447917" fill="#E60A11"/></g></svg>