<svg width="48" height="48" xmlns="http://www.w3.org/2000/svg" xmlns:xlink="http://www.w3.org/1999/xlink" xml:space="preserve" overflow="hidden"><defs><clipPath id="clip0"><rect x="449" y="244" width="48" height="48"/></clipPath></defs><g clip-path="url(#clip0)" transform="translate(-449 -244)"><path d="M492 279.5 490.5 281 456 281 454 279 454 269 456 267 490.5 267 492 268.5 492 279.5ZM451 264 451 284 495 284 495 264 451 264Z" stroke="#E60A11" stroke-width="0.5" fill="#E60A11"/><path d="M477 274C477 276.761 475.209 279 473 279 470.791 279 469 276.761 469 274 469 271.239 470.791 269 473 269 475.209 269 477 271.239 477 274Z" stroke="#E60A11" stroke-width="0.5" fill="#E60A11"/><path d="M462 274C462 274.828 461.328 275.5 460.5 275.5 459.672 275.5 459 274.828 459 274 459 273.172 459.672 272.5 460.5 272.5 461.328 272.5 462 273.172 462 274Z" stroke="#E60A11" stroke-width="0.5" fill="#E60A11"/><path d="M487 274C487 274.828 486.328 275.5 485.5 275.5 484.672 275.5 484 274.828 484 274 484 273.172 484.672 272.5 485.5 272.5 486.328 272.5 487 273.172 487 274Z" stroke="#E60A11" stroke-width="0.5" fill="#E60A11"/><path d="M481.95 254.35 482.7 256.25 485.7 255.65 483.6 250.4 456.7 261.4 472.1 258.35Z" stroke="#E60A11" stroke-width="0.5" fill="#E60A11"/><path d="M479.35 262 487.25 260.45 487.6 262 490.65 262 489.65 256.9 464 262Z" stroke="#E60A11" stroke-width="0.5" fill="#E60A11"/></g></svg>