<svg width="48" height="48" xmlns="http://www.w3.org/2000/svg" xmlns:xlink="http://www.w3.org/1999/xlink" xml:space="preserve" overflow="hidden"><g transform="translate(-592 -312)"><path d="M606.578 333.188C607.108 333.181 607.637 333.223 608.158 333.315L608.989 333.481C609.559 333.595 610.081 333.881 610.484 334.3L612.284 336.164 613.011 335.478 611.204 333.605C610.659 333.04 609.955 332.655 609.185 332.5L608.354 332.333C607.771 332.229 607.178 332.18 606.586 332.188 605.031 332.177 603.296 331.415 601.531 329.651 598.932 326.986 596.055 322.863 595.232 321.657 595.097 321.458 595.122 321.192 595.292 321.022L595.364 320.951C595.559 320.755 595.876 320.755 596.071 320.951L603.9 328.779C604.138 329.017 604.524 329.017 604.761 328.779 604.999 328.541 604.999 328.155 604.761 327.918L596.932 320.09C596.737 319.895 596.737 319.578 596.932 319.383L597.373 318.941C597.569 318.746 597.885 318.746 598.081 318.941L605.909 326.77C606.146 327.007 606.532 327.007 606.77 326.77 607.008 326.532 607.008 326.146 606.77 325.908L598.942 318.081C598.747 317.885 598.747 317.569 598.942 317.374L599.383 316.932C599.578 316.737 599.895 316.737 600.09 316.932L607.918 324.76C608.146 325.008 608.531 325.024 608.779 324.797 609.026 324.569 609.043 324.184 608.815 323.936 608.804 323.924 608.792 323.911 608.779 323.9L600.95 316.071C600.755 315.876 600.755 315.559 600.95 315.364L601.025 315.289C601.119 315.195 601.246 315.142 601.379 315.142 601.478 315.142 601.575 315.171 601.656 315.227 604.486 317.106 607.146 319.229 609.607 321.572 611.379 323.345 612.14 325.087 612.144 326.647 612.133 327.252 612.174 327.857 612.266 328.456L612.46 329.576C612.56 330.148 612.84 330.674 613.26 331.076L615.41 333.133 616.117 332.426 613.953 330.353C613.686 330.099 613.509 329.766 613.447 329.403L613.253 328.283C613.171 327.74 613.135 327.191 613.146 326.642 613.141 324.708 612.162 322.71 610.316 320.863 607.809 318.476 605.098 316.312 602.214 314.396 601.619 313.997 600.826 314.075 600.32 314.582L600.245 314.656C599.946 314.955 599.787 315.366 599.807 315.788 599.784 315.788 599.76 315.788 599.737 315.788 599.338 315.786 598.957 315.945 598.676 316.227L598.235 316.668C597.953 316.949 597.794 317.331 597.795 317.729 597.795 317.752 597.795 317.776 597.795 317.799 597.773 317.799 597.749 317.799 597.726 317.799 597.327 317.798 596.946 317.956 596.665 318.238L596.224 318.68C595.925 318.978 595.766 319.389 595.787 319.81 595.763 319.81 595.74 319.81 595.716 319.81 595.318 319.809 594.936 319.968 594.656 320.25L594.584 320.321C594.074 320.83 593.998 321.631 594.404 322.227 595.237 323.44 598.159 327.629 600.816 330.35 602.662 332.197 604.653 333.175 606.578 333.188Z" stroke="#FFFFFF" stroke-width="0.5" fill="#FFFFFF"/><path d="M623.657 339.644 622.992 340.391 635.03 351.917C635.917 352.76 635.953 354.163 635.109 355.051 634.266 355.938 632.863 355.973 631.976 355.13 631.951 355.106 631.926 355.082 631.903 355.057L618.907 341.589C618.695 341.534 618.477 341.471 618.245 341.389L617.794 341.874 631.183 355.75C632.417 357.028 634.453 357.063 635.73 355.829 637.008 354.595 637.044 352.56 635.81 351.282 635.781 351.252 635.751 351.223 635.721 351.194Z" stroke="#FFFFFF" stroke-width="0.5" fill="#FFFFFF"/><path d="M637.429 317.35C636.986 316.754 636.292 316.396 635.55 316.382L635.5 316.382C634.717 316.382 633.966 316.697 633.416 317.254L615.116 335.554 597.176 352.516C595.897 353.726 595.84 355.744 597.05 357.023 597.653 357.66 598.49 358.021 599.366 358.021 600.253 358.019 601.099 357.649 601.703 357L617.845 339.616C618.585 339.989 619.391 340.213 620.218 340.274 620.721 340.298 621.21 340.105 621.56 339.742L632.715 327.22C635.627 323.953 637.354 321.362 637.851 319.521 638.049 318.771 637.894 317.971 637.429 317.35ZM636.885 319.26C636.56 320.466 635.422 322.679 631.968 326.556L620.826 339.064C620.662 339.216 620.441 339.293 620.218 339.274 619.4 339.274 618.157 338.661 617.605 338.404L600.97 356.322C600.144 357.204 598.76 357.25 597.877 356.424 596.995 355.598 596.949 354.214 597.775 353.331 597.803 353.301 597.833 353.271 597.863 353.242L615.81 336.271 634.12 317.961C634.483 317.591 634.978 317.383 635.496 317.381L635.53 317.381C636.347 317.42 636.977 318.114 636.938 318.931 636.933 319.043 636.915 319.153 636.885 319.26Z" stroke="#FFFFFF" stroke-width="0.5" fill="#FFFFFF"/></g></svg>