<svg width="66" height="66" xmlns="http://www.w3.org/2000/svg" xmlns:xlink="http://www.w3.org/1999/xlink" xml:space="preserve" overflow="hidden"><g transform="translate(-713 -225)"><path d="M728.812 238.75 736.375 238.75 736.375 242.875 755.625 242.875 755.625 238.75 763.188 238.75 763.188 281.375 728.812 281.375 728.812 238.75ZM746.069 233.25C747.169 233.25 748.062 234.212 748.062 235.312 748.062 236.481 747.169 237.375 746 237.375 744.831 237.375 743.938 236.481 743.938 235.312 743.938 234.144 744.831 233.25 746.069 233.25ZM724.688 237.375 724.688 282.75C724.688 284.263 725.925 285.5 727.438 285.5L764.562 285.5C766.075 285.5 767.312 284.263 767.312 282.75L767.312 237.375C767.312 235.863 766.075 234.625 764.562 234.625L752.875 234.625 752.875 233.25C752.875 231.738 751.638 230.5 750.125 230.5L741.875 230.5C740.362 230.5 739.125 231.738 739.125 233.25L739.125 234.625 727.438 234.625C725.925 234.625 724.688 235.863 724.688 237.375Z" fill="#FF0000"/><path d="M732.938 248.375 744.625 248.375 744.625 251.125 732.938 251.125Z" fill="#FF0000"/><path d="M732.938 256.625 744.625 256.625 744.625 259.375 732.938 259.375Z" fill="#FF0000"/><path d="M732.938 264.875 744.625 264.875 744.625 267.625 732.938 267.625Z" fill="#FF0000"/><path d="M732.938 273.125 744.625 273.125 744.625 275.875 732.938 275.875Z" fill="#FF0000"/><path d="M749.369 249.613 750.812 248.169 752.6 249.956 757.138 245.419 758.581 246.863 752.6 252.844Z" fill="#FF0000"/><path d="M749.369 257.862 750.812 256.419 752.6 258.206 757.138 253.669 758.581 255.113 752.6 261.094Z" fill="#FF0000"/><path d="M749.369 266.112 750.812 264.669 752.6 266.456 757.138 261.919 758.581 263.362 752.6 269.344Z" fill="#FF0000"/><path d="M749.369 274.362 750.812 272.919 752.6 274.706 757.138 270.169 758.581 271.612 752.6 277.594Z" fill="#FF0000"/></g></svg>