<svg width="48" height="48" xmlns="http://www.w3.org/2000/svg" xmlns:xlink="http://www.w3.org/1999/xlink" xml:space="preserve" overflow="hidden"><defs><clipPath id="clip0"><rect x="280" y="0" width="48" height="48"/></clipPath></defs><g clip-path="url(#clip0)" transform="translate(-280 0)"><path d="M309.952 21.6356 307.715 23.0298C308.418 23.4546 309.243 23.6992 310.124 23.6992 312.701 23.6992 314.79 21.6102 314.79 19.0331 314.79 16.456 312.701 14.3669 310.124 14.3669 308.795 14.3669 307.597 14.9236 306.747 15.8152 308.258 15.0846 310.107 15.5957 311.015 17.0522 311.987 18.6115 311.511 20.6637 309.952 21.6356Z" fill="#E60A11"/><path d="M303.811 23.6519 309.138 20.3309C309.977 19.8081 310.233 18.7042 309.711 17.8653 309.188 17.0266 308.084 16.7703 307.245 17.2932L304.638 18.9185 304.622 15.7476C304.61 13.424 302.71 11.5333 300.386 11.5333 299.37 11.5333 291.772 11.5333 290.778 11.5333 288.454 11.5333 286.554 13.4238 286.543 15.7476L286.477 28.8964C286.473 29.5306 286.803 30.0917 287.304 30.4124L287.304 31.9008 286.835 31.9008C286.427 31.9008 286.096 32.2319 286.096 32.6403L286.096 39.9367C286.096 40.3451 286.427 40.6763 286.835 40.6763L289.618 40.6763C290.026 40.6763 290.357 40.3451 290.357 39.9367L290.357 32.6403C290.357 32.2319 290.026 31.9008 289.618 31.9008L289.141 31.9008 289.141 30.4659C289.693 30.1558 290.053 29.571 290.056 28.9144L290.122 15.7658C290.122 15.7632 290.122 15.7607 290.122 15.7582 290.125 15.5685 290.281 15.4168 290.471 15.4185 290.66 15.4202 290.813 15.5745 290.813 15.7642 290.813 18.5888 290.814 29.6864 290.814 30.6778 291.475 31.0822 291.917 31.8107 291.917 32.6407L291.917 39.937C291.917 40.767 291.475 41.4955 290.814 41.8999L290.814 45.8525C290.814 47.0387 291.776 48.0002 292.962 48.0002 294.148 48.0002 295.109 47.0387 295.109 45.8525 295.109 44.9757 295.109 29.301 295.109 28.6856L296.036 28.6856C296.036 29.3108 296.036 44.9992 296.036 45.8525 296.036 47.0387 296.998 48.0002 298.184 48.0002 299.37 48.0002 300.332 47.0387 300.332 45.8525 300.332 29.7327 300.303 18.5399 300.295 15.7776 300.294 15.573 300.458 15.4062 300.663 15.4029 300.867 15.3997 301.036 15.5614 301.042 15.7661L301.074 22.1428C301.077 22.7915 301.431 23.3875 301.999 23.7009 302.572 24.0163 303.265 23.9923 303.811 23.6519Z" fill="#E60A11"/><path d="M295.597 10.3511C297.646 10.3511 299.306 8.69055 299.306 6.64174 299.306 4.59261 297.646 2.93241 295.597 2.93241 293.553 2.93241 291.888 4.58794 291.888 6.64174 291.888 8.69812 293.558 10.3511 295.597 10.3511Z" fill="#E60A11"/><path d="M321.896 28.0463 321.896 1.22797C321.896 0.549858 321.346 3.41061e-15 320.668 3.41061e-15L298.009 3.41061e-15C297.331 3.41061e-15 296.781 0.549697 296.781 1.22797L296.781 1.59695C297.725 1.81822 298.569 2.29711 299.237 2.95639L299.237 2.45594 319.44 2.45594 319.44 26.8185 301.855 26.8185 301.883 43.1747C301.883 43.5002 302.147 43.7641 302.473 43.7641L321.315 43.7641C321.64 43.7641 321.904 43.5002 321.904 43.1747L321.904 28.0463 321.896 28.0463Z" fill="#E60A11"/></g></svg>