<svg width="47" height="48" xmlns="http://www.w3.org/2000/svg" xmlns:xlink="http://www.w3.org/1999/xlink" xml:space="preserve" overflow="hidden"><defs><clipPath id="clip0"><rect x="718" y="413" width="47" height="48"/></clipPath></defs><g clip-path="url(#clip0)" transform="translate(-718 -413)"><path d="M30.2293 33.4248C28.7229 35.2846 26.7244 36.6839 24.4615 37.4634 25.7954 36.0426 26.7772 34.3287 27.3281 32.4594L28.6739 32.4594 28.7674 31.113 27.7104 31.113C28.105 29.4683 28.3216 27.7859 28.3567 26.0948L29.1155 26.0948 29.209 24.7484 28.3567 24.7484C28.3345 23.8432 28.2631 22.9399 28.1427 22.0425L26.8453 22.5811C26.929 23.2836 26.9922 24.0043 27.0103 24.7504L23.8652 24.7504 23.4457 26.0968 27.0103 26.0968C26.973 27.7907 26.74 29.4746 26.3161 31.115L21.0222 31.115 21.0222 29.3314 19.6759 29.9517 19.6759 31.1111 14.382 31.1111C14.2312 30.5422 14.1108 29.94 14.006 29.3226 13.5628 29.5641 13.1463 29.8029 12.7566 30.0389 12.8266 30.4031 12.9035 30.7625 12.9877 31.1111L11.1273 31.1111C10.0288 31.8418 9.08202 32.7781 8.33907 33.8684 13.0027 40.5027 22.1616 42.1003 28.7959 37.4367 30.7654 36.0522 32.3643 34.2047 33.4518 32.0569ZM9.74907 32.4594 13.372 32.4594C13.9224 34.3295 14.9045 36.0443 16.239 37.4654 13.5851 36.5539 11.3046 34.7949 9.74907 32.4594ZM19.6759 37.904C17.6196 37.5334 15.8659 35.4777 14.7952 32.4574L19.6759 32.4574ZM21.0222 37.904 21.0222 32.4594 25.9029 32.4594C24.8322 35.4777 23.0775 37.5334 21.0222 37.904Z" stroke="#E60A11" stroke-width="0.489583" fill="#E60A11" transform="matrix(1 0 0 1.02128 718 413)"/><path d="M24.4136 13.2755C23.8699 12.6695 23.2815 12.105 22.6535 11.587L21.7497 10.8002C21.2886 10.7566 20.8195 10.7322 20.349 10.7322 12.5148 10.7323 6.05967 16.8813 5.67917 24.7063 6.35479 24.0881 7.0877 23.4785 7.87789 22.8773 8.10109 21.7848 8.46769 20.7266 8.96819 19.7302L12.5152 19.7302 12.948 18.3839 9.74907 18.3839C11.3038 16.0481 13.5836 14.2884 16.237 13.3759 15.4059 14.2298 14.7218 15.2155 14.2126 16.2928L16.3619 15.3024C17.3004 14.004 18.4323 13.1595 19.6759 12.9353L19.6759 16.3819 21.0222 17.0272 21.0222 12.9353C22.442 13.1918 23.7208 14.2572 24.7279 15.8845L25.9822 15.3656C25.5446 14.6088 25.018 13.9071 24.4136 13.2755Z" stroke="#E60A11" stroke-width="0.489583" fill="#E60A11" transform="matrix(1 0 0 1.02128 718 413)"/><path d="M31.0631 19.2406 30.1897 31.8303 33.512 30.4183 36.6262 16.8627 42.8787 14.2341C44.3347 13.6153 45.921 12.0599 45.4451 10.9397 45.1881 10.3351 44.3758 10.0766 43.4559 10.0737 43.4349 10.0737 43.4133 10.0737 43.3918 10.0737 43.2713 10.0737 43.147 10.083 43.0251 10.0928 42.442 10.1399 41.8698 10.277 41.3287 10.4991L35.0762 13.1296 35.061 13.1208 35.0395 13.1296 23.2635 5.875 19.926 7.29479 29.4763 15.5095 21.4163 18.8446 21.3992 18.8362 21.3796 18.8446 16.871 16.6845 15.1174 17.4928 16.8309 19.2685 16.8059 19.2803 19.3909 21.9559 19.5256 25.2028 19.5613 25.1886 19.6906 28.3102 21.4271 27.5102 22.9644 22.5776 31.0264 19.2406 31.0264 19.2563Z" stroke="#E60A11" stroke-width="0.489583" fill="#E60A11" transform="matrix(1 0 0 1.02128 718 413)"/><path d="M6.3778 35.3562C6.3778 32.2596 10.6049 28.8795 18.0813 25.7824L17.9486 22.5747 15.4189 19.9564C5.4804 24.9501 0.420552 31.394 1.98673 36.3085 2.78965 38.8264 5.05593 40.3353 11.726 39.3478 11.726 39.3478 12.831 39.1451 13.0479 38.8117 8.43014 38.8132 6.3778 37.4301 6.3778 35.3562Z" stroke="#E60A11" stroke-width="0.489583" fill="#E60A11" transform="matrix(1 0 0 1.02128 718 413)"/></g></svg>