<svg width="48" height="48" xmlns="http://www.w3.org/2000/svg" xmlns:xlink="http://www.w3.org/1999/xlink" xml:space="preserve" overflow="hidden"><g transform="translate(-579 -269)"><path d="M596.45 282 609.45 282 609.45 284 596.45 284Z" fill="#E60A11"/><path d="M596.45 286 609.45 286 609.45 288 596.45 288Z" fill="#E60A11"/><path d="M596.45 290 609.45 290 609.45 292 596.45 292Z" fill="#E60A11"/><path d="M620.5 310.8 610.5 301.3 620.5 291.8 620.5 310.8ZM588.1 312 598 302.65 598.7 302C601.4 299.45 605.65 299.45 608.35 302L609.05 302.65 618.9 312 588.1 312ZM586.5 291.75 596.5 301.25 586.5 310.75 586.5 291.75ZM593.5 279 613.5 279 613.5 295.65 609 299.95C605.75 297.45 601.25 297.45 598 299.95L593.5 295.65 593.5 279ZM616.5 280.35 616.5 276 609.5 276 603.5 271 597.5 276 590.5 276 590.5 280.4 583.5 287.05 583.5 315 623.5 315 623.5 287.05 616.5 280.35Z" fill="#E60A11"/></g></svg>