<svg width="44" height="44" xmlns="http://www.w3.org/2000/svg" xmlns:xlink="http://www.w3.org/1999/xlink" xml:space="preserve" overflow="hidden"><g transform="translate(-611 -331)"><path d="M650.875 331 620.625 331C618.346 331 616.5 332.845 616.5 335.125L616.5 337.875 615.125 337.875C612.846 337.875 611 339.72 611 342L611 369.5C611 372.538 613.462 375 616.5 375L649.5 375C652.538 375 655 372.538 655 369.5L655 335.125C655 332.845 653.152 331 650.875 331ZM652.25 369.5C652.25 371.015 651.015 372.25 649.5 372.25L616.5 372.25C614.983 372.25 613.75 371.015 613.75 369.5L613.75 342C613.75 341.241 614.366 340.625 615.125 340.625L616.5 340.625 616.5 368.125C616.5 368.886 617.115 369.5 617.875 369.5 618.635 369.5 619.25 368.886 619.25 368.125L619.25 335.125C619.25 334.366 619.866 333.75 620.625 333.75L650.875 333.75C651.633 333.75 652.25 334.366 652.25 335.125L652.25 369.5Z" fill="#E60A11" fill-rule="evenodd"/><path d="M637.81 348.882 648.81 348.882C649.19 348.882 649.497 348.574 649.497 348.195 649.497 347.815 649.19 347.507 648.81 347.507L637.81 347.507C637.432 347.507 637.122 347.815 637.122 348.195 637.122 348.574 637.432 348.882 637.81 348.882Z" fill="#E60A11" fill-rule="evenodd"/><path d="M637.81 344.757 648.81 344.757C649.19 344.757 649.497 344.449 649.497 344.07 649.497 343.69 649.19 343.382 648.81 343.382L637.81 343.382C637.432 343.382 637.122 343.69 637.122 344.07 637.122 344.449 637.432 344.757 637.81 344.757Z" fill="#E60A11" fill-rule="evenodd"/><path d="M637.81 340.632 648.81 340.632C649.19 340.632 649.497 340.324 649.497 339.944 649.497 339.565 649.19 339.257 648.81 339.257L637.81 339.257C637.432 339.257 637.122 339.565 637.122 339.944 637.122 340.324 637.432 340.632 637.81 340.632Z" fill="#E60A11" fill-rule="evenodd"/><path d="M633.688 368.131 622.688 368.131C622.308 368.131 622 368.44 622 368.818 622 369.199 622.308 369.505 622.688 369.505L633.688 369.505C634.065 369.505 634.375 369.199 634.375 368.818 634.375 368.44 634.067 368.131 633.688 368.131Z" fill="#E60A11" fill-rule="evenodd"/><path d="M633.688 364.005 622.688 364.005C622.308 364.005 622 364.315 622 364.693 622 365.074 622.308 365.38 622.688 365.38L633.688 365.38C634.065 365.38 634.375 365.074 634.375 364.693 634.375 364.315 634.067 364.005 633.688 364.005Z" fill="#E60A11" fill-rule="evenodd"/><path d="M633.688 359.88 622.688 359.88C622.308 359.88 622 360.19 622 360.568 622 360.949 622.308 361.256 622.688 361.256L633.688 361.256C634.065 361.256 634.375 360.949 634.375 360.568 634.375 360.19 634.067 359.88 633.688 359.88Z" fill="#E60A11" fill-rule="evenodd"/><path d="M648.812 368.131 637.812 368.131C637.432 368.131 637.125 368.44 637.125 368.818 637.125 369.199 637.432 369.505 637.812 369.505L648.812 369.505C649.19 369.505 649.5 369.199 649.5 368.818 649.5 368.44 649.19 368.131 648.812 368.131Z" fill="#E60A11" fill-rule="evenodd"/><path d="M648.812 364.005 637.812 364.005C637.432 364.005 637.125 364.315 637.125 364.693 637.125 365.074 637.432 365.38 637.812 365.38L648.812 365.38C649.19 365.38 649.5 365.074 649.5 364.693 649.5 364.315 649.19 364.005 648.812 364.005Z" fill="#E60A11" fill-rule="evenodd"/><path d="M648.812 359.88 637.812 359.88C637.432 359.88 637.125 360.19 637.125 360.568 637.125 360.949 637.432 361.256 637.812 361.256L648.812 361.256C649.19 361.256 649.5 360.949 649.5 360.568 649.5 360.19 649.19 359.88 648.812 359.88Z" fill="#E60A11" fill-rule="evenodd"/><path d="M648.812 351.631 622.688 351.631C622.308 351.631 622 351.939 622 352.318 622 352.697 622.308 353.005 622.688 353.005L648.812 353.005C649.19 353.005 649.5 352.697 649.5 352.318 649.5 351.939 649.19 351.631 648.812 351.631Z" fill="#E60A11" fill-rule="evenodd"/><path d="M648.812 355.756 622.688 355.756C622.308 355.756 622 356.065 622 356.443 622 356.824 622.308 357.131 622.688 357.131L648.812 357.131C649.19 357.131 649.5 356.824 649.5 356.443 649.5 356.065 649.19 355.756 648.812 355.756Z" fill="#E60A11" fill-rule="evenodd"/><path d="M623.375 348.875 633 348.875C633.76 348.875 634.375 348.26 634.375 347.5L634.375 337.88C634.375 337.12 633.76 336.505 633 336.505L623.375 336.505C622.615 336.505 622 337.12 622 337.88L622 347.5C622 348.259 622.615 348.875 623.375 348.875ZM624.75 339.25 631.625 339.25 631.625 346.125 624.75 346.125 624.75 339.25Z" fill="#E60A11" fill-rule="evenodd"/></g></svg>