<svg width="44" height="44" xmlns="http://www.w3.org/2000/svg" xmlns:xlink="http://www.w3.org/1999/xlink" xml:space="preserve" overflow="hidden"><defs><clipPath id="clip0"><rect x="484" y="426" width="44" height="44"/></clipPath></defs><g clip-path="url(#clip0)" transform="translate(-484 -426)"><path d="M498.208 437.458 510.583 437.458 510.583 439.292 498.208 439.292Z" stroke="#E60A11" stroke-width="0.458333" fill="#E60A11"/><path d="M502.792 444.333 510.583 444.333 510.583 446.167 502.792 446.167Z" stroke="#E60A11" stroke-width="0.458333" fill="#E60A11"/><path d="M498.208 444.333 500.5 444.333 500.5 446.167 498.208 446.167Z" stroke="#E60A11" stroke-width="0.458333" fill="#E60A11"/><path d="M502.792 448.917 510.583 448.917 510.583 450.75 502.792 450.75Z" stroke="#E60A11" stroke-width="0.458333" fill="#E60A11"/><path d="M498.208 448.917 500.5 448.917 500.5 450.75 498.208 450.75Z" stroke="#E60A11" stroke-width="0.458333" fill="#E60A11"/><path d="M502.792 453.5 510.583 453.5 510.583 455.333 502.792 455.333Z" stroke="#E60A11" stroke-width="0.458333" fill="#E60A11"/><path d="M498.208 453.5 500.5 453.5 500.5 455.333 498.208 455.333Z" stroke="#E60A11" stroke-width="0.458333" fill="#E60A11"/><path d="M487.667 459.458 487.667 465.875 521.125 465.875 521.125 459.458 516.542 459.458 516.542 442.958 523.875 442.958 523.875 435.167C523.875 432.371 521.629 430.125 518.833 430.125L497.292 430.125C494.496 430.125 492.25 432.371 492.25 435.167L492.25 459.458 487.667 459.458ZM514.342 432.875C513.975 433.562 513.792 434.388 513.792 435.167L513.792 461.75 495 461.75 495 435.167C495 433.883 496.008 432.875 497.292 432.875L514.342 432.875ZM516.542 440.208 516.542 435.167C516.542 433.883 517.55 432.875 518.833 432.875 520.117 432.875 521.125 433.883 521.125 435.167L521.125 440.208 516.542 440.208Z" stroke="#E60A11" stroke-width="0.458333" fill="#E60A11"/></g></svg>