<svg width="60" height="60" xmlns="http://www.w3.org/2000/svg" xmlns:xlink="http://www.w3.org/1999/xlink" xml:space="preserve" overflow="hidden"><defs><clipPath id="clip0"><rect x="167" y="420" width="60" height="60"/></clipPath></defs><g clip-path="url(#clip0)" transform="translate(-167 -420)"><path d="M219.504 428.749 174.504 428.749C173.125 428.753 172.008 429.87 172.004 431.249L172.004 461.249C172.008 462.628 173.125 463.745 174.504 463.749L192.004 463.749 192.004 467.499 185.754 467.499 185.754 471.249 208.254 471.249 208.254 467.499 202.004 467.499 202.004 463.749 219.504 463.749C220.883 463.745 222 462.628 222.004 461.249L222.004 431.249C222 429.87 220.883 428.753 219.504 428.749ZM192.316 459.999 175.754 459.999 175.754 447.187 192.316 447.187ZM192.316 445.312 175.754 445.312 175.754 432.499 192.316 432.499ZM218.254 459.999 194.191 459.999 194.191 432.499 218.254 432.499Z" stroke="#E60A11" stroke-width="0.625" fill="#E60A11"/><path d="M212.629 449.06C212.643 448.515 212.385 448 211.941 447.684 210.952 446.909 209.804 446.361 208.58 446.079 207.662 445.803 206.712 445.649 205.754 445.62 204.793 445.623 203.839 445.778 202.927 446.079 201.72 446.41 200.582 446.953 199.566 447.684 199.135 448.011 198.881 448.519 198.879 449.06L198.879 452.499 212.629 452.499Z" stroke="#E60A11" stroke-width="0.625" fill="#E60A11"/><path d="M209.191 441.264C209.191 443.162 207.652 444.701 205.754 444.701 203.855 444.701 202.316 443.162 202.316 441.264 202.316 439.365 203.855 437.826 205.754 437.826 207.652 437.826 209.191 439.365 209.191 441.264Z" stroke="#E60A11" stroke-width="0.625" fill="#E60A11"/><path d="M188.254 441.288C188.262 440.953 188.104 440.636 187.831 440.442 187.222 439.965 186.516 439.628 185.762 439.454 185.197 439.284 184.612 439.189 184.023 439.172 183.432 439.174 182.845 439.269 182.283 439.454 181.541 439.658 180.84 439.992 180.215 440.442 179.95 440.643 179.794 440.956 179.792 441.288L179.792 443.405 188.254 443.405Z" stroke="#E60A11" stroke-width="0.625" fill="#E60A11"/><path d="M186.139 436.491C186.139 437.659 185.191 438.607 184.023 438.607 182.854 438.607 181.907 437.659 181.907 436.491 181.907 435.322 182.854 434.375 184.023 434.375 185.191 434.375 186.139 435.322 186.139 436.491Z" stroke="#E60A11" stroke-width="0.625" fill="#E60A11"/><path d="M188.254 456.008C188.262 455.673 188.104 455.355 187.831 455.161 187.222 454.684 186.516 454.347 185.762 454.173 185.197 454.003 184.612 453.909 184.023 453.891 183.432 453.893 182.845 453.988 182.283 454.173 181.541 454.377 180.84 454.711 180.215 455.161 179.95 455.362 179.794 455.675 179.792 456.008L179.792 458.124 188.254 458.124Z" stroke="#E60A11" stroke-width="0.625" fill="#E60A11"/><path d="M186.139 451.21C186.139 452.379 185.191 453.326 184.023 453.326 182.854 453.326 181.907 452.379 181.907 451.21 181.907 450.042 182.854 449.094 184.023 449.094 185.191 449.094 186.139 450.042 186.139 451.21Z" stroke="#E60A11" stroke-width="0.625" fill="#E60A11"/></g></svg>