<svg width="61" height="60" xmlns="http://www.w3.org/2000/svg" xmlns:xlink="http://www.w3.org/1999/xlink" xml:space="preserve" overflow="hidden"><defs><clipPath id="clip0"><rect x="509" y="238" width="61" height="60"/></clipPath></defs><g clip-path="url(#clip0)" transform="translate(-509 -238)"><path d="M17.5 26.25 42.5 26.25 42.5 27.5 17.5 27.5Z" stroke="#E60A11" stroke-width="0.625" fill="#E60A11" transform="matrix(1.01667 0 0 1 509 238)"/><path d="M17.5 21.25 29.375 21.25 29.375 22.5 17.5 22.5Z" stroke="#E60A11" stroke-width="0.625" fill="#E60A11" transform="matrix(1.01667 0 0 1 509 238)"/><path d="M17.5 31.25 42.5 31.25 42.5 32.5 17.5 32.5Z" stroke="#E60A11" stroke-width="0.625" fill="#E60A11" transform="matrix(1.01667 0 0 1 509 238)"/><path d="M17.5 36.25 42.5 36.25 42.5 37.5 17.5 37.5Z" stroke="#E60A11" stroke-width="0.625" fill="#E60A11" transform="matrix(1.01667 0 0 1 509 238)"/><path d="M17.5 41.25 42.5 41.25 42.5 42.5 17.5 42.5Z" stroke="#E60A11" stroke-width="0.625" fill="#E60A11" transform="matrix(1.01667 0 0 1 509 238)"/><path d="M17.5 46.25 42.5 46.25 42.5 47.5 17.5 47.5Z" stroke="#E60A11" stroke-width="0.625" fill="#E60A11" transform="matrix(1.01667 0 0 1 509 238)"/><path d="M11.25 5 11.25 55 48.75 55 48.75 18.4913 35.2588 5ZM35.6356 7.14437 46.6056 18.1144C46.6081 18.1168 46.608 18.1208 46.6056 18.1232 46.6044 18.1243 46.6029 18.125 46.6012 18.125L35.625 18.125 35.625 7.14875C35.6251 7.14531 35.6279 7.14256 35.6313 7.14256 35.6329 7.14262 35.6345 7.14325 35.6356 7.14437ZM12.5 53.75 12.5 6.25 34.375 6.25 34.375 19.375 47.5 19.375 47.5 53.75Z" stroke="#E60A11" stroke-width="0.625" fill="#E60A11" transform="matrix(1.01667 0 0 1 509 238)"/></g></svg>