<svg width="30" height="29" xmlns="http://www.w3.org/2000/svg" xmlns:xlink="http://www.w3.org/1999/xlink" xml:space="preserve" overflow="hidden"><defs><clipPath id="clip0"><rect x="624" y="426" width="30" height="29"/></clipPath></defs><g clip-path="url(#clip0)" transform="translate(-624 -426)"><path d="M19.9375 24.1667 9.0625 24.1667 9.0625 4.83333 19.9375 4.83333 19.9375 24.1667ZM13.2917 2.41667 15.7083 2.41667C16.0406 2.41667 16.3125 2.68854 16.3125 3.02083 16.3125 3.35313 16.0406 3.625 15.7083 3.625L13.2917 3.625C12.9594 3.625 12.6875 3.35313 12.6875 3.02083 12.6875 2.68854 12.9594 2.41667 13.2917 2.41667ZM21.1458 1.20833 7.85417 1.20833C7.52187 1.20833 7.25 1.48021 7.25 1.8125L7.25 27.1875C7.25 27.5198 7.52187 27.7917 7.85417 27.7917L21.1458 27.7917C21.4781 27.7917 21.75 27.5198 21.75 27.1875L21.75 1.8125C21.75 1.48021 21.4781 1.20833 21.1458 1.20833Z" stroke="#E60A11" stroke-width="0.302083" fill="#E60A11" transform="matrix(1.03448 0 0 1 624 426)"/></g></svg>