<svg width="70" height="69" xmlns="http://www.w3.org/2000/svg" xmlns:xlink="http://www.w3.org/1999/xlink" xml:space="preserve" overflow="hidden"><defs><clipPath id="clip0"><rect x="292" y="152" width="70" height="69"/></clipPath></defs><g clip-path="url(#clip0)" transform="translate(-292 -152)"><path d="M52.0663 44.5115C51.5799 40.648 51.302 36.7611 51.2339 32.8677 51.2339 29.6937 51.3777 26.7008 51.589 24.0271 52.309 15.0912 45.6488 7.26354 36.713 6.54351 36.5003 6.52637 36.2872 6.51343 36.0741 6.50469 35.5602 6.47594 35.0391 6.46875 34.5 6.46875 33.9609 6.46875 33.4362 6.47594 32.9188 6.4975 23.9615 6.86476 16.9979 14.4238 17.3651 23.3811 17.3738 23.5938 17.3867 23.8063 17.4038 24.0185 17.6137 26.7023 17.7589 29.6887 17.7589 32.8591 17.6943 36.7526 17.4165 40.6397 16.9266 44.5028 15.8281 53.7979 22.4727 62.2236 31.7678 63.3222 32.2008 63.3733 32.6356 63.4078 33.0711 63.4254 33.534 63.4398 34.0112 63.4462 34.4964 63.4462 34.9816 63.4462 35.4516 63.4398 35.9217 63.4254 45.2723 63.0479 52.5464 55.1617 52.1689 45.8111 52.1514 45.3768 52.1171 44.9432 52.0663 44.5115ZM46.9631 56.6425C44.189 59.9108 40.1618 61.8528 35.8771 61.9886 35.4214 62.0023 34.9657 62.0087 34.4957 62.0087 34.0256 62.0087 33.5613 62.0023 33.1193 61.9886 28.8336 61.8542 24.8049 59.9126 22.0297 56.644 19.1908 53.3392 17.8585 49.0003 18.3533 44.6717 18.8543 40.754 19.1355 36.8112 19.1957 32.862 19.1957 29.9654 19.0749 26.9531 18.8363 23.9056 18.1788 15.7616 24.248 8.62658 32.392 7.96921 32.5872 7.95347 32.7827 7.94154 32.9784 7.93356 33.4219 7.91559 33.92 7.90625 34.5 7.90625 35.1167 7.90625 35.5781 7.91703 36.0223 7.94147 44.1854 8.27935 50.5291 15.1707 50.1912 23.3339 50.1832 23.5273 50.1714 23.7205 50.1558 23.9135 49.9172 26.951 49.7964 29.964 49.7964 32.8692 49.861 36.8177 50.1422 40.7597 50.6388 44.6775 51.1336 49.0036 49.8017 53.34 46.9638 56.6425Z" stroke="#E60A11" stroke-width="0.71875" fill="#E60A11" transform="matrix(1.01449 0 0 1 292 152)"/><path d="M35.2188 17.3219 35.2188 11.5C35.2188 11.103 34.897 10.7812 34.5 10.7812 34.103 10.7812 33.7812 11.103 33.7812 11.5L33.7812 17.3219C32.1091 17.6657 30.9084 19.1366 30.9062 20.8438L30.9062 28.0312C30.9084 29.7384 32.1091 31.2093 33.7812 31.5531L33.7812 43.125C33.7812 43.522 34.103 43.8438 34.5 43.8438 34.897 43.8438 35.2188 43.522 35.2188 43.125L35.2188 31.5531C36.8909 31.2093 38.0916 29.7384 38.0938 28.0312L38.0938 20.8438C38.0916 19.1366 36.8909 17.6657 35.2188 17.3219ZM36.6562 28.0312C36.6562 29.2221 35.6909 30.1875 34.5 30.1875 33.3091 30.1875 32.3438 29.2221 32.3438 28.0312L32.3438 20.8438C32.3438 19.6529 33.3091 18.6875 34.5 18.6875 35.6909 18.6875 36.6562 19.6529 36.6562 20.8438Z" stroke="#E60A11" stroke-width="0.71875" fill="#E60A11" transform="matrix(1.01449 0 0 1 292 152)"/></g></svg>