<svg width="48" height="48" xmlns="http://www.w3.org/2000/svg" xmlns:xlink="http://www.w3.org/1999/xlink" xml:space="preserve" overflow="hidden"><defs><clipPath id="clip0"><rect x="847" y="237" width="48" height="48"/></clipPath></defs><g clip-path="url(#clip0)" transform="translate(-847 -237)"><path d="M875 263.677 875 256.677 861.443 263.707 859.965 243.5 855.035 243.5 853.5 264.5 853.5 278.5 888.5 278.5 888.5 256.677ZM859.035 244.5 859.218 247 855.782 247 855.965 244.5ZM855.708 248 859.292 248 860.462 264 854.538 264ZM861.15 264.984 874 258.323 874 265.323 887.5 258.323 887.5 277.5 854.5 277.5 854.5 265 860.535 265Z" stroke="#E60A11" stroke-width="0.5" fill="#E60A11"/><path d="M857 274.5 865 274.5 865 269.5 857 269.5ZM864 273.5 861.5 273.5 861.5 270.5 864 270.5ZM858 270.5 860.5 270.5 860.5 273.5 858 273.5Z" stroke="#E60A11" stroke-width="0.5" fill="#E60A11"/><path d="M867 274.5 875 274.5 875 269.5 867 269.5ZM874 273.5 871.5 273.5 871.5 270.5 874 270.5ZM868 270.5 870.5 270.5 870.5 273.5 868 273.5Z" stroke="#E60A11" stroke-width="0.5" fill="#E60A11"/><path d="M885 269.5 877 269.5 877 274.5 885 274.5ZM878 270.5 880.5 270.5 880.5 273.5 878 273.5ZM884 273.5 881.5 273.5 881.5 270.5 884 270.5Z" stroke="#E60A11" stroke-width="0.5" fill="#E60A11"/></g></svg>