<svg width="48" height="48" xmlns="http://www.w3.org/2000/svg" xmlns:xlink="http://www.w3.org/1999/xlink" xml:space="preserve" overflow="hidden"><g transform="translate(-623 -241)"><path d="M638.592 266.664C636.534 267.358 634.606 268.389 632.885 269.714 631.717 270.626 631.024 272.018 631 273.5L631 282.285 631.445 282.582C632.484 283.275 634.279 283.819 636.5 284.217L636.5 281 646 281 646 285.023C646.379 285.029 646.758 285.032 647.138 285.033 647.426 285.033 647.713 285.029 648 285.026L648 281 657.5 281 657.5 284.253C659.805 283.845 661.628 283.277 662.6 282.55L663 282.25 663 273.479C662.973 272.011 662.288 270.633 661.133 269.726 659.414 268.4 657.487 267.368 655.43 266.672L652.313 265.422C652.125 265.346 652.001 265.163 652 264.96L652 263.736C653.896 262.221 655 259.927 655 257.5L655 254 655.5 254C656.052 254 656.5 253.552 656.5 253 656.5 252.448 656.052 252 655.5 252L655 252C654.826 249.239 653.238 246.764 650.8 245.455L650 248.62C649.944 248.849 649.735 249.007 649.5 249L649.38 249C649.11 248.943 648.936 248.678 648.993 248.408 648.993 248.408 648.993 248.408 648.993 248.408 648.993 248.398 648.997 248.389 649 248.38L649.95 244.635C649.783 243.971 649.188 243.504 648.503 243.5L645.503 243.5C644.817 243.502 644.22 243.97 644.053 244.635L645.003 248.38C645.075 248.646 644.919 248.92 644.653 248.993L644.623 249 644.503 249C644.268 249.007 644.059 248.849 644.003 248.62L643.228 245.455C640.79 246.764 639.202 249.239 639.028 252L638.503 252C637.951 252 637.503 252.448 637.503 253 637.503 253.552 637.951 254 638.503 254L639.003 254 639.003 257.5C639.004 259.925 640.106 262.218 642 263.733L642 264.96C642 265.162 641.879 265.344 641.692 265.422ZM641 257.5 641 254 653 254 653 257.5C653 260.814 650.314 263.5 647 263.5 643.686 263.5 641 260.814 641 257.5ZM646 279 636.659 279 638.228 268.988 642.446 267.273C642.477 267.26 642.503 267.243 642.532 267.23L646.003 275.5ZM647 267.5C645.656 267.513 644.318 267.321 643.032 266.93 643.642 266.458 644 265.731 644 264.96L644 264.91C645.924 265.696 648.079 265.696 650.003 264.91L650.003 264.96C650.002 265.735 650.362 266.465 650.978 266.935 649.688 267.324 648.347 267.514 647 267.5ZM648 279 648 275.5 651.469 267.233C651.498 267.246 651.526 267.263 651.556 267.276L655.806 268.976 657.35 279Z" fill="#E60A11"/></g></svg>