<svg width="48" height="48" xmlns="http://www.w3.org/2000/svg" xmlns:xlink="http://www.w3.org/1999/xlink" xml:space="preserve" overflow="hidden"><defs><clipPath id="clip0"><rect x="666" y="246" width="48" height="48"/></clipPath></defs><g clip-path="url(#clip0)" transform="translate(-666 -246)"><path d="M690 254C681.15 254 674 261.15 674 270 674 278.85 681.15 286 690 286 698.85 286 706 278.85 706 270 706 261.15 698.85 254 690 254ZM690 289C679.5 289 671 280.5 671 270 671 259.5 679.5 251 690 251 700.5 251 709 259.5 709 270 709 280.5 700.5 289 690 289Z" stroke="#E60A11" stroke-width="0.5" fill="#E60A11"/><path d="M700 266 694 266 694 260C694 258.9 693.1 258 692 258L688 258C686.9 258 686 258.9 686 260L686 266 680 266C678.9 266 678 266.9 678 268L678 272C678 273.1 678.9 274 680 274L686 274 686 280C686 281.1 686.9 282 688 282L692 282C693.1 282 694 281.1 694 280L694 274 700 274C701.1 274 702 273.1 702 272L702 268C702 266.9 701.1 266 700 266Z" stroke="#E60A11" stroke-width="0.5" fill="#E60A11"/></g></svg>