<svg width="58" height="57" xmlns="http://www.w3.org/2000/svg" xmlns:xlink="http://www.w3.org/1999/xlink" xml:space="preserve" overflow="hidden"><defs><clipPath id="clip0"><rect x="1090" y="241" width="58" height="57"/></clipPath></defs><g clip-path="url(#clip0)" transform="translate(-1090 -241)"><path d="M33.8253 14.3883C33.5712 13.9843 33.1467 13.7183 32.6723 13.6658 32.2198 13.6131 31.7679 13.7696 31.445 14.0909L9.84912 34.9315 6.57103 38.0718 10.3657 44.6476 14.7107 43.2945 20.5004 41.6522 20.4636 41.686 23.126 44.6221 31.5139 42.3065 32.2858 38.3384 32.2264 38.3272 43.5622 35.112 43.6288 35.0888C44.0839 34.8956 44.4319 34.5133 44.5817 34.0421 44.7204 33.6191 44.6667 33.1568 44.4351 32.7768ZM8.0655 38.2832 10.1436 36.2942 13.6539 42.3783 10.9226 43.2297ZM30.4891 41.3535 23.5125 43.2808 21.7194 41.3036 31.0116 38.668ZM43.453 33.6823C43.4122 33.8109 43.3215 33.9179 43.2013 33.9791L14.82 42.0286 11.023 35.4469 32.2792 14.9388C32.3478 14.8682 32.4451 14.8331 32.5428 14.8438 32.6509 14.8551 32.7487 14.913 32.8106 15.0023L43.4245 33.3883C43.4772 33.4772 43.4877 33.5849 43.453 33.6823Z" stroke="#E60A11" stroke-width="0.59375" fill="#E60A11" transform="matrix(1.01754 0 0 1 1090 241)"/><path d="M44.1246 18.4263 50.9452 18.4263 50.9452 19.6181 44.1246 19.6181Z" stroke="#E60A11" stroke-width="0.596205" fill="#E60A11" transform="matrix(0.883169 -0.488322 0.496889 0.867942 1086.74 266.646)"/><path d="M47.8602 22.4067 49.0494 22.4067 49.0494 29.2089 47.8602 29.2089Z" stroke="#E60A11" stroke-width="0.594595" fill="#E60A11" transform="matrix(0.274346 -0.961631 0.978502 0.269616 1100.71 306.419)"/><path d="M38.6665 13.9777 45.4687 13.9777 45.4687 15.1669 38.6665 15.1669Z" stroke="#E60A11" stroke-width="0.594595" fill="#E60A11" transform="matrix(0.274346 -0.961631 0.978502 0.269616 1106.96 292.083)"/></g></svg>