<svg width="38" height="38" xmlns="http://www.w3.org/2000/svg" xmlns:xlink="http://www.w3.org/1999/xlink" xml:space="preserve" overflow="hidden"><defs><clipPath id="clip0"><rect x="816" y="417" width="38" height="38"/></clipPath></defs><g clip-path="url(#clip0)" transform="translate(-816 -417)"><path d="M819.167 428.875C819.167 428.44 819.523 428.083 819.958 428.083L825.5 428.083 825.5 434.417 819.167 434.417 819.167 428.875ZM827.083 428.083 833.417 428.083 833.417 434.417 827.083 434.417 827.083 428.083ZM835 428.083 841.333 428.083 841.333 434.417 835 434.417 835 428.083ZM842.917 428.083 848.181 428.083C848.933 428.083 849.606 428.638 849.725 429.39L850.635 435.01C850.715 435.604 850.794 436.198 850.794 436.792L845.292 436.792 842.917 434.417 842.917 428.083ZM817.583 428.083 817.583 442.333C817.583 443.204 818.296 443.917 819.167 443.917L819.246 443.917C819.206 443.679 819.167 443.402 819.167 443.125 819.167 440.948 820.948 439.167 823.125 439.167 825.302 439.167 827.083 440.948 827.083 443.125 827.083 443.402 827.044 443.679 827.004 443.917L841.412 443.917C841.373 443.679 841.333 443.402 841.333 443.125 841.333 440.948 843.115 439.167 845.292 439.167 847.469 439.167 849.25 440.948 849.25 443.125 849.25 443.402 849.21 443.679 849.171 443.917L850.833 443.917C851.704 443.917 852.417 443.204 852.417 442.333L852.417 437.267C852.417 436.435 852.338 435.565 852.219 434.733L851.308 429.073C851.031 427.569 849.725 426.46 848.181 426.46L819.167 426.46C818.296 426.5 817.583 427.212 817.583 428.083Z" stroke="#E60A11" stroke-width="0.395833" fill="#E60A11"/><path d="M848.062 443.125C848.062 444.655 846.822 445.896 845.292 445.896 843.761 445.896 842.521 444.655 842.521 443.125 842.521 441.595 843.761 440.354 845.292 440.354 846.822 440.354 848.062 441.595 848.062 443.125Z" stroke="#E60A11" stroke-width="0.395833" fill="#E60A11"/><path d="M825.896 443.125C825.896 444.655 824.655 445.896 823.125 445.896 821.595 445.896 820.354 444.655 820.354 443.125 820.354 441.595 821.595 440.354 823.125 440.354 824.655 440.354 825.896 441.595 825.896 443.125Z" stroke="#E60A11" stroke-width="0.395833" fill="#E60A11"/></g></svg>